<svg version="1.1" id="Layer_1" xmlns="http://www.w3.org/2000/svg" xmlns:xlink="http://www.w3.org/1999/xlink" x="0px" y="0px"
	 width="100%" viewBox="0 0 512 512" enable-background="new 0 0 512 512" xml:space="preserve">
<path fill="none" opacity="1.000000" stroke="none" 
	d="
M0.999998,440.000000 
	C1.000000,293.697693 1.000000,147.395370 1.000000,1.046524 
	C171.599472,1.046524 342.198975,1.046524 512.899231,1.046524 
	C512.899231,171.563263 512.899231,342.126587 512.899231,512.844971 
	C342.333435,512.844971 171.666733,512.844971 1.000000,512.844971 
	C1.000000,494.922485 1.000000,476.926239 1.249200,458.107208 
	C3.255633,458.835449 4.887686,460.570709 6.810929,461.877472 
	C8.266977,462.866730 10.149570,463.989166 11.745882,463.860016 
	C15.634615,463.545441 19.504894,462.684418 23.297604,461.711914 
	C24.320253,461.449707 25.352299,460.145508 25.842987,459.073730 
	C27.988316,454.387817 30.226229,449.710785 31.891743,444.846100 
	C34.830143,436.263397 37.151268,427.467590 40.148426,418.907227 
	C43.190586,410.218323 46.787998,401.725250 50.042099,393.108551 
	C51.630611,388.902283 52.915367,384.581879 54.475590,380.364166 
	C56.240978,375.591888 58.154778,370.874329 60.016373,366.137848 
	C61.113384,363.346649 62.251930,360.571655 63.340244,357.777100 
	C64.914871,353.733795 66.490860,349.690521 68.011726,345.626831 
	C70.015747,340.272125 71.920586,334.879578 73.998817,329.554291 
	C74.261459,328.881317 75.248741,328.241699 76.013672,328.057495 
	C79.238464,327.281006 82.504585,326.674774 85.758629,326.021454 
	C92.430305,324.681976 99.081207,323.222107 105.782486,322.051117 
	C114.266747,320.568573 122.793945,319.332428 131.298386,317.963654 
	C132.089081,317.836426 132.839722,317.478058 133.625198,317.297638 
	C138.913361,316.083038 144.205902,314.887482 148.937515,313.812836 
	C150.125305,317.850433 151.523605,320.968689 151.910797,324.207794 
	C153.444717,337.040314 154.679565,349.908813 155.989243,362.767670 
	C156.585495,368.621796 156.188858,374.382874 157.594040,380.396881 
	C159.764420,389.685791 159.226349,399.592194 160.040619,409.219452 
	C160.480911,414.425385 161.341400,419.595917 162.020660,424.781311 
	C162.062759,425.102722 162.072052,425.533997 162.274506,425.713226 
	C166.557037,429.504761 171.062637,433.365753 177.242889,431.881073 
	C181.945892,430.751251 186.361588,428.782471 188.155777,423.287384 
	C189.465958,419.274719 191.785355,415.602112 193.479156,411.701599 
	C195.722336,406.535889 197.869797,401.325348 199.920074,396.079987 
	C202.384659,389.774750 204.658157,383.395020 207.099533,377.080444 
	C209.339859,371.285950 211.717560,365.544708 213.989166,359.762115 
	C215.805344,355.138885 217.521271,350.476288 219.339401,345.853821 
	C221.527771,340.290039 223.823959,334.768372 225.985275,329.194275 
	C227.678894,324.826324 229.130737,320.362946 230.882339,316.019531 
	C233.516495,309.487793 236.318741,303.023834 239.297180,295.942200 
	C240.026810,295.942200 241.576523,296.240875 242.959686,295.887543 
	C247.528030,294.720520 251.974731,293.010956 256.583923,292.087891 
	C261.695312,291.064178 266.948761,290.772095 272.112396,289.979309 
	C275.819153,289.410217 279.507477,288.656281 283.154449,287.778625 
	C287.945801,286.625671 292.640228,285.027863 297.465302,284.068787 
	C302.448578,283.078217 307.551270,282.704651 312.577332,281.907379 
	C316.137329,281.342651 319.671112,280.586395 323.190979,279.800812 
	C328.634277,278.585876 334.041412,277.207184 339.491211,276.023865 
	C343.338348,275.188568 347.315887,274.847321 351.069153,273.728577 
	C353.126160,273.115417 355.114227,271.617096 356.653992,270.047607 
	C360.896912,265.722870 360.702515,260.063568 359.720032,254.818542 
	C358.896759,250.423538 351.157410,245.549469 346.035370,246.151550 
	C340.065277,246.853302 334.262909,248.871521 328.317413,249.919373 
	C319.597504,251.456192 310.815247,252.639297 302.059174,253.970688 
	C301.574036,254.044449 301.069122,254.036911 300.601196,254.167114 
	C296.059448,255.430923 291.578308,256.984589 286.971283,257.922180 
	C282.025421,258.928741 276.962097,259.356506 271.952515,260.054626 
	C271.473114,260.121429 271.015930,260.334198 270.540527,260.445312 
	C264.521851,261.852112 258.501740,263.252686 251.262711,264.938843 
	C253.588364,258.910583 255.199387,254.378464 257.077362,249.959793 
	C259.273712,244.791977 261.940369,239.814804 263.959473,234.583725 
	C265.736359,229.980225 266.615387,225.029510 268.401581,220.430466 
	C271.390289,212.735275 274.955170,205.264328 277.961884,197.575546 
	C280.933868,189.975616 283.312225,182.141968 286.335327,174.564194 
	C288.519440,169.089401 291.642517,163.986938 293.791016,158.500748 
	C296.872314,150.632690 299.199554,142.468292 302.310181,134.613129 
	C305.224396,127.253876 309.015198,120.241364 311.920685,112.879112 
	C315.686005,103.338005 318.956421,93.601570 322.244232,84.491287 
	C328.783020,83.506752 334.695892,82.925522 340.462219,81.670731 
	C347.831848,80.067055 355.031250,77.678818 362.403442,76.090218 
	C367.492859,74.993530 372.751068,74.681038 377.932861,74.010658 
	C378.419128,73.947754 378.902954,73.850082 379.380402,73.736763 
	C384.607788,72.496048 389.808533,71.127243 395.067688,70.040970 
	C399.529114,69.119469 404.085114,68.657600 408.549225,67.747086 
	C414.002747,66.634758 419.385376,65.176880 424.834167,64.038445 
	C428.845062,63.200439 432.960541,62.838577 436.945374,61.905552 
	C444.783478,60.070297 452.515625,57.763210 460.383759,56.082779 
	C465.514069,54.987083 470.807404,54.656197 476.025818,53.968548 
	C476.508148,53.904991 476.976715,53.738098 477.451996,53.620323 
	C482.325287,52.412624 487.190125,51.169182 492.074097,50.006214 
	C499.121216,48.328171 506.234680,47.173756 509.486298,39.041405 
	C512.342896,31.896851 506.561890,21.738251 498.971313,22.091825 
	C492.737762,22.382189 486.526886,20.999334 480.194153,23.720886 
	C475.570435,25.707966 469.925262,25.265154 464.760071,26.064581 
	C461.432526,26.579597 458.122375,27.272818 454.852936,28.082153 
	C449.945374,29.296995 445.125488,30.898752 440.184357,31.935940 
	C435.398682,32.940506 430.502380,33.410610 425.663239,34.170273 
	C422.054382,34.736813 418.406555,35.179058 414.871277,36.059124 
	C410.427277,37.165413 406.139221,38.927498 401.675262,39.916180 
	C397.099243,40.929688 392.380524,41.281815 387.746033,42.053883 
	C384.094177,42.662258 380.449951,43.361435 376.848022,44.213421 
	C371.918427,45.379436 367.073517,46.932045 362.115417,47.940872 
	C357.307343,48.919167 352.377930,49.286510 347.545349,50.162529 
	C341.209625,51.311028 334.917816,52.701031 328.603455,53.969036 
	C327.962067,54.097836 327.271332,54.011349 326.644897,54.179188 
	C321.974945,55.430367 317.230072,58.010971 312.671814,57.709385 
	C304.981293,57.200562 301.334259,62.589062 298.460327,67.113289 
	C294.458801,73.412621 292.714539,81.141045 289.967255,88.243538 
	C288.031006,93.249245 286.037872,98.232994 284.061981,103.223312 
	C282.052277,108.299026 279.996704,113.356903 278.027954,118.448395 
	C276.283173,122.960838 274.710236,127.540764 272.916046,132.032822 
	C270.691986,137.601089 268.279205,143.093750 266.021210,148.648834 
	C264.209625,153.105637 262.503021,157.605194 260.757690,162.088821 
	C259.168945,166.170242 257.588013,170.254730 256.008636,174.339798 
	C254.219376,178.967682 252.485687,183.617798 250.636429,188.221542 
	C248.479172,193.592010 246.180573,198.905701 244.022858,204.275986 
	C242.171799,208.883041 240.455200,213.543945 238.638565,218.165085 
	C236.444565,223.746033 234.080048,229.263519 232.023895,234.894119 
	C229.777618,241.045410 228.074554,247.405563 225.628418,253.470474 
	C223.100540,259.738037 219.964294,265.760254 217.250290,271.556427 
	C202.844620,274.463745 188.645706,277.329346 174.966721,280.089996 
	C173.876450,274.313782 172.533478,269.383881 172.086182,264.374023 
	C171.155746,253.952698 170.699524,243.489014 170.049927,233.042648 
	C170.029266,232.710236 170.064667,232.370056 170.008743,232.044708 
	C168.678436,224.306061 167.235886,216.584915 166.036850,208.826111 
	C165.197174,203.392746 164.592712,197.917709 164.053665,192.444489 
	C163.287308,184.663559 162.627869,176.871094 162.013626,169.076416 
	C161.279236,159.757111 160.641037,150.430252 159.959259,141.106812 
	C159.934982,140.774734 159.904358,140.441986 159.853378,140.113174 
	C158.571503,131.844910 157.201553,123.589165 156.030746,115.305244 
	C155.197388,109.408669 155.005600,103.400040 153.849945,97.575851 
	C152.450684,90.523796 138.556076,86.939049 133.171524,91.911171 
	C129.457596,95.340599 126.773636,99.000519 125.749611,104.326241 
	C124.831093,109.103340 121.743179,113.421150 120.105743,118.113762 
	C118.383148,123.050415 117.561272,128.305496 115.782928,133.217651 
	C112.749641,141.596298 109.282059,149.817902 105.986008,158.101151 
	C104.088409,162.869980 102.071472,167.593903 100.285049,172.403717 
	C98.089081,178.316223 96.090889,184.301987 93.981857,190.247086 
	C92.359947,194.819077 90.649780,199.360382 89.078720,203.949509 
	C88.427429,205.851974 88.186371,207.898315 87.497627,209.783844 
	C85.739532,214.596802 83.855736,219.364426 81.980110,224.133621 
	C80.930237,226.803177 79.753204,229.422836 78.710548,232.095062 
	C77.105682,236.208160 75.487434,240.319046 74.020790,244.482285 
	C72.239761,249.537964 70.709686,254.682846 68.892540,259.724792 
	C66.005249,267.736023 62.889416,275.665192 60.028522,283.685516 
	C58.373215,288.326050 57.151237,293.120819 55.508980,297.766510 
	C53.811108,302.569550 51.803406,307.262146 50.004055,312.030548 
	C49.024273,314.626984 48.290825,317.317688 47.279766,319.900696 
	C44.914433,325.943512 42.270779,331.882935 40.072144,337.983948 
	C37.742485,344.448547 36.019596,351.134644 33.619301,357.570160 
	C31.368591,363.604614 28.312199,369.340424 26.098309,375.386322 
	C23.701073,381.932922 22.120464,388.778900 19.715878,395.322388 
	C17.476095,401.417419 14.307807,407.173859 12.113763,413.282471 
	C9.108781,421.648987 6.691202,430.225403 3.839987,438.650269 
	C3.606093,439.341400 1.979473,439.561188 0.999998,440.000000 
z"/>
<path fill="#9ED33F" opacity="1.000000" stroke="none" 
	d="
M0.999998,440.467957 
	C1.979473,439.561188 3.606093,439.341400 3.839987,438.650269 
	C6.691202,430.225403 9.108781,421.648987 12.113763,413.282471 
	C14.307807,407.173859 17.476095,401.417419 19.715878,395.322388 
	C22.120464,388.778900 23.701073,381.932922 26.098309,375.386322 
	C28.312199,369.340424 31.368591,363.604614 33.619301,357.570160 
	C36.019596,351.134644 37.742485,344.448547 40.072144,337.983948 
	C42.270779,331.882935 44.914433,325.943512 47.279766,319.900696 
	C48.290825,317.317688 49.024273,314.626984 50.004055,312.030548 
	C51.803406,307.262146 53.811108,302.569550 55.508980,297.766510 
	C57.151237,293.120819 58.373215,288.326050 60.028522,283.685516 
	C62.889416,275.665192 66.005249,267.736023 68.892540,259.724792 
	C70.709686,254.682846 72.239761,249.537964 74.020790,244.482285 
	C75.487434,240.319046 77.105682,236.208160 78.710548,232.095062 
	C79.753204,229.422836 80.930237,226.803177 81.980110,224.133621 
	C83.855736,219.364426 85.739532,214.596802 87.497627,209.783844 
	C88.186371,207.898315 88.427429,205.851974 89.078720,203.949509 
	C90.649780,199.360382 92.359947,194.819077 93.981857,190.247086 
	C96.090889,184.301987 98.089081,178.316223 100.285049,172.403717 
	C102.071472,167.593903 104.088409,162.869980 105.986008,158.101151 
	C109.282059,149.817902 112.749641,141.596298 115.782928,133.217651 
	C117.561272,128.305496 118.383148,123.050415 120.105743,118.113762 
	C121.743179,113.421150 124.831093,109.103340 125.749611,104.326241 
	C126.773636,99.000519 129.457596,95.340599 133.171524,91.911171 
	C138.556076,86.939049 152.450684,90.523796 153.849945,97.575851 
	C155.005600,103.400040 155.197388,109.408669 156.030746,115.305244 
	C157.201553,123.589165 158.571503,131.844910 159.853378,140.113174 
	C159.904358,140.441986 159.934982,140.774734 159.959259,141.106812 
	C160.641037,150.430252 161.279236,159.757111 162.013626,169.076416 
	C162.627869,176.871094 163.287308,184.663559 164.053665,192.444489 
	C164.592712,197.917709 165.197174,203.392746 166.036850,208.826111 
	C167.235886,216.584915 168.678436,224.306061 170.008743,232.044708 
	C170.064667,232.370056 170.029266,232.710236 170.049927,233.042648 
	C170.699524,243.489014 171.155746,253.952698 172.086182,264.374023 
	C172.533478,269.383881 173.876450,274.313782 174.966721,280.089996 
	C188.645706,277.329346 202.844620,274.463745 217.250290,271.556427 
	C219.964294,265.760254 223.100540,259.738037 225.628418,253.470474 
	C228.074554,247.405563 229.777618,241.045410 232.023895,234.894119 
	C234.080048,229.263519 236.444565,223.746033 238.638565,218.165085 
	C240.455200,213.543945 242.171799,208.883041 244.022858,204.275986 
	C246.180573,198.905701 248.479172,193.592010 250.636429,188.221542 
	C252.485687,183.617798 254.219376,178.967682 256.008636,174.339798 
	C257.588013,170.254730 259.168945,166.170242 260.757690,162.088821 
	C262.503021,157.605194 264.209625,153.105637 266.021210,148.648834 
	C268.279205,143.093750 270.691986,137.601089 272.916046,132.032822 
	C274.710236,127.540764 276.283173,122.960838 278.027954,118.448395 
	C279.996704,113.356903 282.052277,108.299026 284.061981,103.223312 
	C286.037872,98.232994 288.031006,93.249245 289.967255,88.243538 
	C292.714539,81.141045 294.458801,73.412621 298.460327,67.113289 
	C301.334259,62.589062 304.981293,57.200562 312.671814,57.709385 
	C317.230072,58.010971 321.974945,55.430367 326.644897,54.179188 
	C327.271332,54.011349 327.962067,54.097836 328.603455,53.969036 
	C334.917816,52.701031 341.209625,51.311028 347.545349,50.162529 
	C352.377930,49.286510 357.307343,48.919167 362.115417,47.940872 
	C367.073517,46.932045 371.918427,45.379436 376.848022,44.213421 
	C380.449951,43.361435 384.094177,42.662258 387.746033,42.053883 
	C392.380524,41.281815 397.099243,40.929688 401.675262,39.916180 
	C406.139221,38.927498 410.427277,37.165413 414.871277,36.059124 
	C418.406555,35.179058 422.054382,34.736813 425.663239,34.170273 
	C430.502380,33.410610 435.398682,32.940506 440.184357,31.935940 
	C445.125488,30.898752 449.945374,29.296995 454.852936,28.082153 
	C458.122375,27.272818 461.432526,26.579597 464.760071,26.064581 
	C469.925262,25.265154 475.570435,25.707966 480.194153,23.720886 
	C486.526886,20.999334 492.737762,22.382189 498.971313,22.091825 
	C506.561890,21.738251 512.342896,31.896851 509.486298,39.041405 
	C506.234680,47.173756 499.121216,48.328171 492.074097,50.006214 
	C487.190125,51.169182 482.325287,52.412624 477.451996,53.620323 
	C476.976715,53.738098 476.508148,53.904991 476.025818,53.968548 
	C470.807404,54.656197 465.514069,54.987083 460.383759,56.082779 
	C452.515625,57.763210 444.783478,60.070297 436.945374,61.905552 
	C432.960541,62.838577 428.845062,63.200439 424.834167,64.038445 
	C419.385376,65.176880 414.002747,66.634758 408.549225,67.747086 
	C404.085114,68.657600 399.529114,69.119469 395.067688,70.040970 
	C389.808533,71.127243 384.607788,72.496048 379.380402,73.736763 
	C378.902954,73.850082 378.419128,73.947754 377.932861,74.010658 
	C372.751068,74.681038 367.492859,74.993530 362.403442,76.090218 
	C355.031250,77.678818 347.831848,80.067055 340.462219,81.670731 
	C334.695892,82.925522 328.783020,83.506752 322.244232,84.491287 
	C318.956421,93.601570 315.686005,103.338005 311.920685,112.879112 
	C309.015198,120.241364 305.224396,127.253876 302.310181,134.613129 
	C299.199554,142.468292 296.872314,150.632690 293.791016,158.500748 
	C291.642517,163.986938 288.519440,169.089401 286.335327,174.564194 
	C283.312225,182.141968 280.933868,189.975616 277.961884,197.575546 
	C274.955170,205.264328 271.390289,212.735275 268.401581,220.430466 
	C266.615387,225.029510 265.736359,229.980225 263.959473,234.583725 
	C261.940369,239.814804 259.273712,244.791977 257.077362,249.959793 
	C255.199387,254.378464 253.588364,258.910583 251.262711,264.938843 
	C258.501740,263.252686 264.521851,261.852112 270.540527,260.445312 
	C271.015930,260.334198 271.473114,260.121429 271.952515,260.054626 
	C276.962097,259.356506 282.025421,258.928741 286.971283,257.922180 
	C291.578308,256.984589 296.059448,255.430923 300.601196,254.167114 
	C301.069122,254.036911 301.574036,254.044449 302.059174,253.970688 
	C310.815247,252.639297 319.597504,251.456192 328.317413,249.919373 
	C334.262909,248.871521 340.065277,246.853302 346.035370,246.151550 
	C351.157410,245.549469 358.896759,250.423538 359.720032,254.818542 
	C360.702515,260.063568 360.896912,265.722870 356.653992,270.047607 
	C355.114227,271.617096 353.126160,273.115417 351.069153,273.728577 
	C347.315887,274.847321 343.338348,275.188568 339.491211,276.023865 
	C334.041412,277.207184 328.634277,278.585876 323.190979,279.800812 
	C319.671112,280.586395 316.137329,281.342651 312.577332,281.907379 
	C307.551270,282.704651 302.448578,283.078217 297.465302,284.068787 
	C292.640228,285.027863 287.945801,286.625671 283.154449,287.778625 
	C279.507477,288.656281 275.819153,289.410217 272.112396,289.979309 
	C266.948761,290.772095 261.695312,291.064178 256.583923,292.087891 
	C251.974731,293.010956 247.528030,294.720520 242.959686,295.887543 
	C241.576523,296.240875 240.026810,295.942200 239.297180,295.942200 
	C236.318741,303.023834 233.516495,309.487793 230.882339,316.019531 
	C229.130737,320.362946 227.678894,324.826324 225.985275,329.194275 
	C223.823959,334.768372 221.527771,340.290039 219.339401,345.853821 
	C217.521271,350.476288 215.805344,355.138885 213.989166,359.762115 
	C211.717560,365.544708 209.339859,371.285950 207.099533,377.080444 
	C204.658157,383.395020 202.384659,389.774750 199.920074,396.079987 
	C197.869797,401.325348 195.722336,406.535889 193.479156,411.701599 
	C191.785355,415.602112 189.465958,419.274719 188.155777,423.287384 
	C186.361588,428.782471 181.945892,430.751251 177.242889,431.881073 
	C171.062637,433.365753 166.557037,429.504761 162.274506,425.713226 
	C162.072052,425.533997 162.062759,425.102722 162.020660,424.781311 
	C161.341400,419.595917 160.480911,414.425385 160.040619,409.219452 
	C159.226349,399.592194 159.764420,389.685791 157.594040,380.396881 
	C156.188858,374.382874 156.585495,368.621796 155.989243,362.767670 
	C154.679565,349.908813 153.444717,337.040314 151.910797,324.207794 
	C151.523605,320.968689 150.125305,317.850433 148.937515,313.812836 
	C144.205902,314.887482 138.913361,316.083038 133.625198,317.297638 
	C132.839722,317.478058 132.089081,317.836426 131.298386,317.963654 
	C122.793945,319.332428 114.266747,320.568573 105.782486,322.051117 
	C99.081207,323.222107 92.430305,324.681976 85.758629,326.021454 
	C82.504585,326.674774 79.238464,327.281006 76.013672,328.057495 
	C75.248741,328.241699 74.261459,328.881317 73.998817,329.554291 
	C71.920586,334.879578 70.015747,340.272125 68.011726,345.626831 
	C66.490860,349.690521 64.914871,353.733795 63.340244,357.777100 
	C62.251930,360.571655 61.113384,363.346649 60.016373,366.137848 
	C58.154778,370.874329 56.240978,375.591888 54.475590,380.364166 
	C52.915367,384.581879 51.630611,388.902283 50.042099,393.108551 
	C46.787998,401.725250 43.190586,410.218323 40.148426,418.907227 
	C37.151268,427.467590 34.830143,436.263397 31.891743,444.846100 
	C30.226229,449.710785 27.988316,454.387817 25.842987,459.073730 
	C25.352299,460.145508 24.320253,461.449707 23.297604,461.711914 
	C19.504894,462.684418 15.634615,463.545441 11.745882,463.860016 
	C10.149570,463.989166 8.266977,462.866730 6.810929,461.877472 
	C4.887686,460.570709 3.255633,458.835449 1.249200,457.642212 
	C1.000000,452.311951 1.000000,446.623932 0.999998,440.467957 
M86.011681,293.787506 
	C86.224457,295.666687 84.981056,298.786835 88.833168,297.863220 
	C93.245453,296.805237 97.508873,295.121887 101.925102,294.085938 
	C108.421272,292.562012 114.974663,291.255585 121.541840,290.067413 
	C129.547928,288.618927 137.593552,287.389069 145.946060,286.011200 
	C145.946060,280.107178 146.419174,274.595856 145.836548,269.198517 
	C144.934799,260.845184 143.232285,252.581253 142.023941,244.256973 
	C141.246841,238.903458 142.142395,233.620178 140.412155,228.028778 
	C138.197052,220.870468 138.602844,212.883545 138.016708,205.243149 
	C137.269867,195.508148 136.827011,185.746460 135.884720,176.031998 
	C135.621292,173.316269 134.059479,170.726471 132.880936,167.497040 
	C131.083969,172.104996 129.423050,175.997192 128.042892,179.986511 
	C125.798683,186.473419 123.850311,193.063522 121.562866,199.534348 
	C119.883255,204.285706 117.707207,208.861862 116.035179,213.615555 
	C114.410378,218.234985 113.341988,223.052094 111.676369,227.654709 
	C109.275253,234.289658 106.538742,240.802765 103.976151,247.379883 
	C101.571373,253.551910 99.157021,259.721039 96.840828,265.926514 
	C95.150002,270.456543 93.753220,275.099792 91.965645,279.589172 
	C90.169563,284.099915 88.051987,288.482635 86.011681,293.787506 
M195.987930,328.226532 
	C198.237289,322.072388 200.505203,315.924896 202.723907,309.759735 
	C203.332428,308.068817 203.793716,306.324921 204.817032,302.997742 
	C194.931961,304.941650 186.552582,306.589447 177.188675,308.430878 
	C178.168823,314.736694 179.396118,320.591888 179.930023,326.509674 
	C180.915970,337.438446 181.492355,348.404144 182.273727,359.351990 
	C182.285172,359.512299 182.740250,359.640961 182.955368,359.765381 
	C185.305115,353.773010 187.555710,347.735687 190.040527,341.796326 
	C191.840790,337.493286 193.951538,333.320160 195.987930,328.226532 
z"/>
<path fill="none" opacity="1.000000" stroke="none" 
	d="
M86.043495,293.354492 
	C88.051987,288.482635 90.169563,284.099915 91.965645,279.589172 
	C93.753220,275.099792 95.150002,270.456543 96.840828,265.926514 
	C99.157021,259.721039 101.571373,253.551910 103.976151,247.379883 
	C106.538742,240.802765 109.275253,234.289658 111.676369,227.654709 
	C113.341988,223.052094 114.410378,218.234985 116.035179,213.615555 
	C117.707207,208.861862 119.883255,204.285706 121.562866,199.534348 
	C123.850311,193.063522 125.798683,186.473419 128.042892,179.986511 
	C129.423050,175.997192 131.083969,172.104996 132.880936,167.497040 
	C134.059479,170.726471 135.621292,173.316269 135.884720,176.031998 
	C136.827011,185.746460 137.269867,195.508148 138.016708,205.243149 
	C138.602844,212.883545 138.197052,220.870468 140.412155,228.028778 
	C142.142395,233.620178 141.246841,238.903458 142.023941,244.256973 
	C143.232285,252.581253 144.934799,260.845184 145.836548,269.198517 
	C146.419174,274.595856 145.946060,280.107178 145.946060,286.011200 
	C137.593552,287.389069 129.547928,288.618927 121.541840,290.067413 
	C114.974663,291.255585 108.421272,292.562012 101.925102,294.085938 
	C97.508873,295.121887 93.245453,296.805237 88.833168,297.863220 
	C84.981056,298.786835 86.224457,295.666687 86.043495,293.354492 
z"/>
<path fill="none" opacity="1.000000" stroke="none" 
	d="
M195.955872,328.657806 
	C193.951538,333.320160 191.840790,337.493286 190.040527,341.796326 
	C187.555710,347.735687 185.305115,353.773010 182.955368,359.765381 
	C182.740250,359.640961 182.285172,359.512299 182.273727,359.351990 
	C181.492355,348.404144 180.915970,337.438446 179.930023,326.509674 
	C179.396118,320.591888 178.168823,314.736694 177.188675,308.430878 
	C186.552582,306.589447 194.931961,304.941650 204.817032,302.997742 
	C203.793716,306.324921 203.332428,308.068817 202.723907,309.759735 
	C200.505203,315.924896 198.237289,322.072388 195.955872,328.657806 
z"/>
</svg>